<svg width="36" height="37" viewBox="0 0 36 37" fill="none" xmlns="http://www.w3.org/2000/svg">
<path d="M18 18.5C18.825 18.5 19.5315 18.1978 20.1195 17.5935C20.7075 16.9891 21.001 16.2635 21 15.4166C21 14.5687 20.706 13.8426 20.118 13.2383C19.53 12.6339 18.824 12.3323 18 12.3333C17.175 12.3333 16.4685 12.6355 15.8805 13.2398C15.2925 13.8441 14.999 14.5698 15 15.4166C15 16.2646 15.294 16.9907 15.882 17.595C16.47 18.1994 17.176 18.501 18 18.5ZM18 29.8312C21.05 26.9535 23.3125 24.3388 24.7875 21.9872C26.2625 19.6357 27 17.5483 27 15.725C27 12.9243 26.131 10.6313 24.393 8.84606C22.655 7.06081 20.524 6.16767 18 6.16665C15.475 6.16665 13.3435 7.05978 11.6055 8.84606C9.8675 10.6323 8.999 12.9253 9 15.725C9 17.5493 9.7375 19.6372 11.2125 21.9888C12.6875 24.3403 14.95 26.9545 18 29.8312ZM18 33.9166C13.975 30.3965 10.969 27.1271 8.982 24.1086C6.995 21.09 6.001 18.2955 6 15.725C6 11.8708 7.2065 8.80033 9.6195 6.51352C12.0325 4.22672 14.826 3.08331 18 3.08331C21.175 3.08331 23.969 4.22672 26.382 6.51352C28.795 8.80033 30.001 11.8708 30 15.725C30 18.2944 29.006 21.089 27.018 24.1086C25.03 27.1282 22.024 30.3975 18 33.9166Z" fill="white"/>
</svg>
